<?xml version="1.0" encoding="UTF-8"?>
<svg width="181px" height="141px" viewBox="0 0 181 141" version="1.1" xmlns="http://www.w3.org/2000/svg" xmlns:xlink="http://www.w3.org/1999/xlink">
    <!-- Generator: Sketch 52.6 (67491) - http://www.bohemiancoding.com/sketch -->
    <title>psclogo</title>
    <desc>Created with Sketch.</desc>
    <defs>
        <polygon id="path-1" points="0.8945 0.727 37.6545 0.727 37.6545 46.0369 0.8945 46.0369"></polygon>
    </defs>
    <g id="Page-1" stroke="none" stroke-width="1" fill="none" fill-rule="evenodd">
        <g id="psclogo">
            <g id="Group-366" transform="translate(0.000000, 12.000000)">
                <path d="M35.8944,34.0369 L35.8944,12.2339 L18.0154,0.0309 L11.6684,4.4799 L11.6684,0.3149 L4.9824,0.3149 L4.9824,9.1669 L0.1364,12.5639 L0.1364,34.0369 L14.5114,34.0369 L14.5114,21.2109 L21.5194,21.2109 L21.5194,34.0369 L35.8944,34.0369 Z M4.9824,23.7529 L9.7514,23.7529 L9.7514,17.8289 L4.9824,17.8289 L4.9824,23.7529 Z M26.2814,23.7529 L31.0504,23.7529 L31.0504,17.8289 L26.2814,17.8289 L26.2814,23.7529 Z" id="Fill-362" fill="#1C3268"></path>
                <path d="M143.5924,34.0369 L143.5924,12.2339 L137.5424,8.1049 L137.5424,0.3149 L132.3994,0.3149 L132.3994,4.5949 L125.7144,0.0309 L107.8344,12.5639 L107.8344,34.0369 L122.2094,34.0369 L122.2094,21.2109 L129.2174,21.2109 L129.2174,34.0369 L143.5924,34.0369 Z M112.6374,23.7529 L117.4064,23.7529 L117.4064,17.8289 L112.6374,17.8289 L112.6374,23.7529 Z M134.0204,23.7529 L138.7884,23.7529 L138.7884,17.8289 L134.0204,17.8289 L134.0204,23.7529 Z" id="Fill-364" fill="#A1BAC5"></path>
            </g>
            <g id="Group-371" transform="translate(0.000000, 88.000000)" fill="#1C3268">
                <path d="M17.6359,33.8423 C15.8089,32.1513 13.2999,31.1703 10.8189,31.1703 C4.9829,31.1703 0.0749,35.9153 0.0749,41.7503 C0.0749,47.5033 5.0649,52.2753 10.7919,52.2753 C13.3269,52.2753 15.6999,51.3213 17.6359,49.7123 L17.6359,47.9123 C16.1089,49.7673 13.1089,51.0483 10.7369,51.0483 C8.3099,51.0483 5.8559,49.8483 4.1379,48.2123 C2.4199,46.5223 1.3839,44.2593 1.3839,41.8593 C1.3839,36.8153 5.6099,32.3973 10.7369,32.3973 C13.2729,32.3973 16.0549,33.7063 17.6359,35.6423 L17.6359,33.8423 Z M30.3429,31.1703 C24.5349,31.1703 19.6809,35.9423 19.6809,41.7233 C19.6809,47.5033 24.5619,52.2753 30.3429,52.2753 C36.1239,52.2753 41.0049,47.5033 41.0049,41.7233 C41.0049,35.9423 36.1239,31.1703 30.3429,31.1703 Z M30.3429,32.3973 C35.4429,32.3973 39.6959,36.6503 39.6959,41.7233 C39.6959,46.7673 35.4429,51.0483 30.3429,51.0483 C25.2159,51.0483 20.9899,46.7953 20.9899,41.7233 C20.9899,36.6503 25.2159,32.3973 30.3429,32.3973 Z M64.4019,52.0033 L65.6559,52.0033 L61.2389,30.7603 L53.6579,49.4673 L46.1039,30.7603 L41.6869,52.0033 L42.9409,52.0033 L46.4589,34.9873 L46.5129,34.9873 L53.6579,52.6853 L60.8289,34.9873 L60.8839,34.9873 L64.4019,52.0033 Z M90.2249,52.0033 L91.4799,52.0033 L87.0619,30.7603 L79.4809,49.4673 L71.9279,30.7603 L67.5099,52.0033 L68.7649,52.0033 L72.2819,34.9873 L72.3369,34.9873 L79.4809,52.6853 L86.6529,34.9873 L86.7069,34.9873 L90.2249,52.0033 Z M105.8499,43.8773 C105.8499,45.7313 105.8499,47.6943 104.7869,49.0573 C103.7769,50.3673 101.7589,51.0483 100.1779,51.0483 C98.5969,51.0483 96.5789,50.3673 95.5689,49.0573 C94.5059,47.6943 94.5059,45.7313 94.5059,43.8773 L94.5059,31.4423 L93.1969,31.4423 L93.1969,44.2593 C93.1969,46.3583 93.1969,48.1583 94.5869,49.8763 C95.9789,51.4583 98.1059,52.2753 100.1779,52.2753 C102.2509,52.2753 104.3779,51.4583 105.7689,49.8763 C107.1589,48.1583 107.1589,46.3583 107.1589,44.2593 L107.1589,31.4423 L105.8499,31.4423 L105.8499,43.8773 Z M129.4099,31.4423 L128.1009,31.4423 L128.1009,49.3853 L110.8399,31.1703 L110.8399,52.0033 L112.1479,52.0033 L112.1479,34.3323 L129.4099,52.6853 L129.4099,31.4423 Z M132.8519,52.0033 L134.1619,52.0033 L134.1619,31.4423 L132.8519,31.4423 L132.8519,52.0033 Z M143.0439,32.6693 L148.3609,32.6693 L148.3609,31.4423 L136.4169,31.4423 L136.4169,32.6693 L141.7349,32.6693 L141.7349,52.0033 L143.0439,52.0033 L143.0439,32.6693 Z M150.6169,52.0033 L151.9259,52.0033 L151.9259,31.4423 L150.6169,31.4423 L150.6169,52.0033 Z M165.1859,32.6693 L165.1859,31.4423 L155.3689,31.4423 L155.3689,52.0033 L165.1859,52.0033 L165.1859,50.7763 L156.6779,50.7763 L156.6779,41.3683 L164.9679,41.3683 L164.9679,40.1413 L156.6779,40.1413 L156.6779,32.6693 L165.1859,32.6693 Z M179.0929,34.0603 C178.1109,32.2873 176.1479,31.1703 174.0749,31.1703 C170.9939,31.1703 168.8119,33.3233 168.8119,36.3783 C168.8119,38.0143 169.5749,39.2143 170.9389,40.0593 L174.6479,42.0223 C176.4199,42.8953 178.7929,43.8773 178.7929,46.1953 C178.7929,48.9213 176.4199,51.0483 173.7209,51.0483 C171.2389,51.0483 169.6299,49.5223 168.7579,47.3403 L167.6129,47.8583 C168.5669,50.5033 170.8029,52.2753 173.6659,52.2753 C176.9919,52.2753 180.1009,49.7123 180.1009,46.3043 C180.1009,44.4493 179.3099,43.1953 177.7559,42.2133 L173.8299,40.1683 C172.1659,39.3773 170.1209,38.4773 170.1209,36.3233 C170.1209,34.1693 171.7849,32.3973 173.9929,32.3973 C175.9289,32.3973 177.2389,33.3513 178.1649,34.8243 L179.0929,34.0603 Z" id="Fill-367"></path>
                <path d="M8.6309,1.8127 L8.6309,0.5857 L0.3409,0.5857 L0.3409,21.1467 L1.6499,21.1467 L1.6499,10.5117 L8.4399,10.5117 L8.4399,9.2847 L1.6499,9.2847 L1.6499,1.8127 L8.6309,1.8127 Z M23.7649,0.3127 C17.9559,0.3127 13.1029,5.0847 13.1029,10.8657 C13.1029,16.6467 17.9839,21.4187 23.7649,21.4187 C29.5459,21.4187 34.4269,16.6467 34.4269,10.8657 C34.4269,5.0847 29.5459,0.3127 23.7649,0.3127 Z M23.7649,1.5397 C28.8639,1.5397 33.1179,5.7937 33.1179,10.8657 C33.1179,15.9107 28.8639,20.1917 23.7649,20.1917 C18.6379,20.1917 14.4119,15.9377 14.4119,10.8657 C14.4119,5.7937 18.6379,1.5397 23.7649,1.5397 Z M42.9339,11.4117 C46.3429,11.4657 48.8249,9.6117 48.8249,6.0387 C48.8249,4.2937 48.2239,2.6577 46.7519,1.6217 C45.3609,0.6127 43.7249,0.5857 42.0619,0.5857 L39.4989,0.5857 L39.4989,21.1467 L40.8079,21.1467 L40.8079,11.4117 L41.4619,11.4117 L48.1699,21.1467 L49.6699,21.1467 L42.9339,11.4117 Z M40.8079,10.1837 L40.8079,1.8127 L41.6529,1.8127 C42.8529,1.8127 44.2439,1.7577 45.3339,2.2767 C46.8069,2.9307 47.5159,4.4577 47.5159,5.9847 C47.5159,7.2117 47.0519,8.4387 46.0699,9.2297 C45.0339,10.1297 43.7529,10.1837 42.4709,10.1837 L40.8079,10.1837 Z M75.4659,3.2037 C74.4839,1.4307 72.5199,0.3127 70.4479,0.3127 C67.3669,0.3127 65.1849,2.4677 65.1849,5.5207 C65.1849,7.1577 65.9489,8.3577 67.3129,9.2027 L71.0209,11.1657 C72.7939,12.0387 75.1659,13.0207 75.1659,15.3377 C75.1659,18.0647 72.7939,20.1917 70.0939,20.1917 C67.6129,20.1917 66.0039,18.6647 65.1309,16.4837 L63.9849,17.0017 C64.9399,19.6467 67.1759,21.4187 70.0389,21.4187 C73.3659,21.4187 76.4749,18.8557 76.4749,15.4467 C76.4749,13.5927 75.6839,12.3387 74.1289,11.3567 L70.2029,9.3117 C68.5399,8.5207 66.4949,7.6207 66.4949,5.4667 C66.4949,3.3127 68.1579,1.5397 70.3659,1.5397 C72.3029,1.5397 73.6109,2.4947 74.5389,3.9667 L75.4659,3.2037 Z M86.3179,1.8127 L91.6359,1.8127 L91.6359,0.5857 L79.6929,0.5857 L79.6929,1.8127 L85.0099,1.8127 L85.0099,21.1467 L86.3179,21.1467 L86.3179,1.8127 Z M99.3259,11.4117 C102.7339,11.4657 105.2159,9.6117 105.2159,6.0387 C105.2159,4.2937 104.6159,2.6577 103.1429,1.6217 C101.7529,0.6127 100.1169,0.5857 98.4539,0.5857 L95.8899,0.5857 L95.8899,21.1467 L97.1989,21.1467 L97.1989,11.4117 L97.8529,11.4117 L104.5619,21.1467 L106.0619,21.1467 L99.3259,11.4117 Z M97.1989,10.1837 L97.1989,1.8127 L98.0449,1.8127 C99.2439,1.8127 100.6349,1.7577 101.7259,2.2767 C103.1979,2.9307 103.9069,4.4577 103.9069,5.9847 C103.9069,7.2117 103.4439,8.4387 102.4619,9.2297 C101.4259,10.1297 100.1439,10.1837 98.8619,10.1837 L97.1989,10.1837 Z M120.5129,0.3127 C114.7049,0.3127 109.8519,5.0847 109.8519,10.8657 C109.8519,16.6467 114.7329,21.4187 120.5129,21.4187 C126.2949,21.4187 131.1759,16.6467 131.1759,10.8657 C131.1759,5.0847 126.2949,0.3127 120.5129,0.3127 Z M120.5129,1.5397 C125.6129,1.5397 129.8669,5.7937 129.8669,10.8657 C129.8669,15.9107 125.6129,20.1917 120.5129,20.1917 C115.3869,20.1917 111.1609,15.9377 111.1609,10.8657 C111.1609,5.7937 115.3869,1.5397 120.5129,1.5397 Z M154.8179,0.5857 L153.5079,0.5857 L153.5079,18.5287 L136.2469,0.3127 L136.2469,21.1467 L137.5569,21.1467 L137.5569,3.4757 L154.8179,21.8277 L154.8179,0.5857 Z M171.7239,11.2477 L171.7239,12.4737 L179.0869,12.4737 C179.0049,14.7107 178.3499,16.4287 176.5779,17.9287 C174.8869,19.2917 172.7329,20.1917 170.5239,20.1917 C165.3979,20.1917 161.1979,15.9377 161.1979,10.8657 C161.1979,5.9307 165.5069,1.5397 170.5239,1.5397 C173.8509,1.5397 176.6319,3.2307 178.4589,5.9577 L179.5229,5.1117 C177.3679,2.1667 174.3419,0.3127 170.6059,0.3127 C164.7159,0.3127 159.8889,5.0567 159.8889,10.9477 C159.8889,16.6197 164.7439,21.4187 170.4429,21.4187 C173.3329,21.4187 176.2769,20.2187 178.2419,18.0927 C180.0679,16.1017 180.4499,13.8387 180.3949,11.2477 L171.7239,11.2477 Z" id="Fill-369"></path>
            </g>
            <g id="Group-381">
                <path d="M4.2892,70.5996 L6.2802,70.5996 C10.4792,70.5996 12.8522,68.4726 12.8522,64.1096 C12.8522,59.4466 10.0432,57.7286 5.7342,57.7286 L0.2812,57.7286 L0.2812,78.2896 L4.2892,78.2896 L4.2892,70.5996 Z M4.2892,61.0556 L4.9982,61.0556 C7.2342,61.0556 8.7612,61.4376 8.7612,64.0826 C8.7612,66.7546 7.4792,67.2726 5.1072,67.2726 L4.2892,67.2726 L4.2892,61.0556 Z M25.9452,73.9536 L27.5272,78.2896 L31.8082,78.2896 L24.0092,57.1836 L20.9002,57.1836 L12.8832,78.2896 L17.1102,78.2896 L18.8012,73.9536 L25.9452,73.9536 Z M24.8272,70.6816 L19.9462,70.6816 L22.2092,63.2096 L22.2642,63.2096 L24.8272,70.6816 Z M43.2332,69.6176 C45.9882,69.1546 47.4332,66.5366 47.4332,63.9186 C47.4332,59.5276 44.6242,57.7286 40.5612,57.7286 L35.1342,57.7286 L35.1342,78.2896 L39.1432,78.2896 L39.1432,69.9996 L39.1982,69.9996 L44.1882,78.2896 L49.0422,78.2896 L43.2332,69.6176 Z M39.1432,61.0006 L39.6882,61.0006 C41.8152,61.0006 43.4242,61.4916 43.4242,64.0276 C43.4242,66.5366 41.8702,67.1906 39.6612,67.1906 L39.1432,67.1906 L39.1432,61.0006 Z M58.5922,61.2196 L62.7372,61.2196 L62.7372,57.7286 L50.4392,57.7286 L50.4392,61.2196 L54.5832,61.2196 L54.5832,78.2896 L58.5922,78.2896 L58.5922,61.2196 Z M66.3092,78.2896 L70.3172,78.2896 L70.3172,64.3276 L70.3722,64.3276 L81.1972,78.6986 L84.0882,78.6986 L84.0882,57.7286 L80.0802,57.7286 L80.0802,71.5536 L80.0252,71.5536 L69.1992,57.1836 L66.3092,57.1836 L66.3092,78.2896 Z M99.7402,61.2196 L99.7402,57.7286 L89.1052,57.7286 L89.1052,78.2896 L99.7402,78.2896 L99.7402,74.7986 L93.1132,74.7986 L93.1132,69.2356 L99.4962,69.2356 L99.4962,65.7456 L93.1132,65.7456 L93.1132,61.2196 L99.7402,61.2196 Z M112.6112,69.6176 C115.3652,69.1546 116.8102,66.5366 116.8102,63.9186 C116.8102,59.5276 114.0022,57.7286 109.9392,57.7286 L104.5122,57.7286 L104.5122,78.2896 L108.5212,78.2896 L108.5212,69.9996 L108.5752,69.9996 L113.5652,78.2896 L118.4202,78.2896 L112.6112,69.6176 Z M108.5212,61.0006 L109.0662,61.0006 C111.1932,61.0006 112.8012,61.4916 112.8012,64.0276 C112.8012,66.5366 111.2472,67.1906 109.0382,67.1906 L108.5212,67.1906 L108.5212,61.0006 Z M133.3892,59.4736 C132.1352,58.0836 129.5992,57.1836 127.7722,57.1836 C124.3092,57.1836 121.7732,59.9376 121.7732,63.3456 C121.7732,66.5366 123.7092,67.8726 126.3542,68.9636 C127.9632,69.5906 129.9272,70.1906 129.9272,72.3176 C129.9272,73.8986 128.9172,75.2896 127.2812,75.2896 C125.5642,75.2896 124.1182,73.8716 123.5732,72.2906 L120.9822,74.8256 C122.4002,77.1986 124.4732,78.8346 127.3092,78.8346 C131.5082,78.8346 134.0712,75.9166 134.0712,71.7996 C134.0712,64.9006 125.9182,66.3456 125.9182,62.8826 C125.9182,61.5466 127.1452,60.5646 128.4262,60.5646 C129.7632,60.5646 130.7442,61.2196 131.5082,62.2556 L133.3892,59.4736 Z M142.2792,65.8276 L142.2792,57.7286 L138.2702,57.7286 L138.2702,78.2896 L142.2792,78.2896 L142.2792,69.0996 L149.6962,69.0996 L149.6962,78.2896 L153.7042,78.2896 L153.7042,57.7286 L149.6962,57.7286 L149.6962,65.8276 L142.2792,65.8276 Z M158.7502,78.2896 L162.7582,78.2896 L162.7582,57.7286 L158.7502,57.7286 L158.7502,78.2896 Z M171.7842,70.5996 L173.7742,70.5996 C177.9742,70.5996 180.3462,68.4726 180.3462,64.1096 C180.3462,59.4466 177.5372,57.7286 173.2292,57.7286 L167.7752,57.7286 L167.7752,78.2896 L171.7842,78.2896 L171.7842,70.5996 Z M171.7842,61.0556 L172.4922,61.0556 C174.7282,61.0556 176.2562,61.4376 176.2562,64.0826 C176.2562,66.7546 174.9742,67.2726 172.6022,67.2726 L171.7842,67.2726 L171.7842,61.0556 Z" id="Fill-372" fill="#1C3268"></path>
                <path d="M180.3522,46.0369 L180.3522,27.6229 L143.5922,27.6229 L143.5922,46.0369 L167.7562,46.0369 L167.7562,33.7119 L174.7632,33.7119 L174.7632,46.0369 L180.3522,46.0369 Z M148.0132,39.6359 L152.7822,39.6359 L152.7822,33.7119 L148.0132,33.7119 L148.0132,39.6359 Z M157.2042,39.6359 L161.9722,39.6359 L161.9722,33.7119 L157.2042,33.7119 L157.2042,39.6359 Z" id="Fill-374" fill="#1C3268"></path>
                <path d="M107.8346,46.0369 L107.8346,11.3859 L72.6546,11.3859 L72.6546,46.0369 L86.7406,46.0369 L86.7406,33.6999 L93.7486,33.6999 L93.7486,46.0369 L107.8346,46.0369 Z M78.3996,27.6109 L85.4066,27.6109 L85.4066,18.9059 L78.3996,18.9059 L78.3996,27.6109 Z M94.5526,27.6109 L101.5606,27.6109 L101.5606,18.9059 L94.5526,18.9059 L94.5526,27.6109 Z" id="Fill-376" fill="#8B3220"></path>
                <g id="Group-380" transform="translate(35.000000, 0.000000)">
                    <mask id="mask-2" fill="white">
                        <use xlink:href="#path-1"></use>
                    </mask>
                    <g id="Clip-379"></g>
                    <path d="M37.6545,46.0369 L37.6545,0.7269 L0.8945,0.7269 L0.8945,46.0369 L6.1505,46.0369 L6.1505,33.7119 L13.1575,33.7119 L13.1575,46.0369 L37.6545,46.0369 Z M6.1505,14.9519 L13.1575,14.9519 L13.1575,7.8439 L6.1505,7.8439 L6.1505,14.9519 Z M6.1505,26.9959 L13.1575,26.9959 L13.1575,19.8879 L6.1505,19.8879 L6.1505,26.9959 Z M18.0115,14.9519 L25.0185,14.9519 L25.0185,7.8439 L18.0115,7.8439 L18.0115,14.9519 Z M18.0115,26.9959 L25.0185,26.9959 L25.0185,19.8879 L18.0115,19.8879 L18.0115,26.9959 Z" id="Fill-378" fill="#A1BAC5" mask="url(#mask-2)"></path>
                </g>
            </g>
        </g>
    </g>
</svg>