<?xml version="1.0" encoding="UTF-8" ?>
<svg xmlns="http://www.w3.org/2000/svg" xmlns:xlink="http://www.w3.org/1999/xlink" height="300" width="300">
  <g id="qrcode:https://rfor.us/consulting">
    <rect x="0" y="0" width="300px" height="300px" style="fill:transparent;"/>
    <rect x="29.03" y="29.03" width="9.68" height="9.68" stroke="black" stroke-width="0.2" stroke-linecap="butt" fill="black"/>
    <rect x="29.03" y="38.71" width="9.68" height="9.68" stroke="black" stroke-width="0.2" stroke-linecap="butt" fill="black"/>
    <rect x="29.03" y="48.39" width="9.68" height="9.68" stroke="black" stroke-width="0.2" stroke-linecap="butt" fill="black"/>
    <rect x="29.03" y="58.06" width="9.68" height="9.68" stroke="black" stroke-width="0.2" stroke-linecap="butt" fill="black"/>
    <rect x="29.03" y="67.74" width="9.68" height="9.68" stroke="black" stroke-width="0.2" stroke-linecap="butt" fill="black"/>
    <rect x="29.03" y="77.42" width="9.68" height="9.68" stroke="black" stroke-width="0.2" stroke-linecap="butt" fill="black"/>
    <rect x="29.03" y="87.10" width="9.68" height="9.68" stroke="black" stroke-width="0.2" stroke-linecap="butt" fill="black"/>
    <rect x="29.03" y="106.45" width="9.68" height="9.68" stroke="black" stroke-width="0.2" stroke-linecap="butt" fill="black"/>
    <rect x="29.03" y="116.13" width="9.68" height="9.68" stroke="black" stroke-width="0.2" stroke-linecap="butt" fill="black"/>
    <rect x="29.03" y="125.81" width="9.68" height="9.68" stroke="black" stroke-width="0.2" stroke-linecap="butt" fill="black"/>
    <rect x="29.03" y="135.48" width="9.68" height="9.68" stroke="black" stroke-width="0.2" stroke-linecap="butt" fill="black"/>
    <rect x="29.03" y="154.84" width="9.68" height="9.68" stroke="black" stroke-width="0.2" stroke-linecap="butt" fill="black"/>
    <rect x="29.03" y="164.52" width="9.68" height="9.68" stroke="black" stroke-width="0.2" stroke-linecap="butt" fill="black"/>
    <rect x="29.03" y="174.19" width="9.68" height="9.68" stroke="black" stroke-width="0.2" stroke-linecap="butt" fill="black"/>
    <rect x="29.03" y="183.87" width="9.68" height="9.68" stroke="black" stroke-width="0.2" stroke-linecap="butt" fill="black"/>
    <rect x="29.03" y="203.23" width="9.68" height="9.68" stroke="black" stroke-width="0.2" stroke-linecap="butt" fill="black"/>
    <rect x="29.03" y="212.90" width="9.68" height="9.68" stroke="black" stroke-width="0.2" stroke-linecap="butt" fill="black"/>
    <rect x="29.03" y="222.58" width="9.68" height="9.68" stroke="black" stroke-width="0.2" stroke-linecap="butt" fill="black"/>
    <rect x="29.03" y="232.26" width="9.68" height="9.68" stroke="black" stroke-width="0.2" stroke-linecap="butt" fill="black"/>
    <rect x="29.03" y="241.94" width="9.68" height="9.68" stroke="black" stroke-width="0.2" stroke-linecap="butt" fill="black"/>
    <rect x="29.03" y="251.61" width="9.68" height="9.68" stroke="black" stroke-width="0.2" stroke-linecap="butt" fill="black"/>
    <rect x="29.03" y="261.29" width="9.68" height="9.68" stroke="black" stroke-width="0.2" stroke-linecap="butt" fill="black"/>
    <rect x="38.71" y="29.03" width="9.68" height="9.68" stroke="black" stroke-width="0.2" stroke-linecap="butt" fill="black"/>
    <rect x="38.71" y="87.10" width="9.68" height="9.68" stroke="black" stroke-width="0.2" stroke-linecap="butt" fill="black"/>
    <rect x="38.71" y="106.45" width="9.68" height="9.68" stroke="black" stroke-width="0.2" stroke-linecap="butt" fill="black"/>
    <rect x="38.71" y="125.81" width="9.68" height="9.68" stroke="black" stroke-width="0.2" stroke-linecap="butt" fill="black"/>
    <rect x="38.71" y="135.48" width="9.68" height="9.68" stroke="black" stroke-width="0.2" stroke-linecap="butt" fill="black"/>
    <rect x="38.71" y="164.52" width="9.68" height="9.68" stroke="black" stroke-width="0.2" stroke-linecap="butt" fill="black"/>
    <rect x="38.71" y="203.23" width="9.68" height="9.68" stroke="black" stroke-width="0.2" stroke-linecap="butt" fill="black"/>
    <rect x="38.71" y="261.29" width="9.68" height="9.68" stroke="black" stroke-width="0.2" stroke-linecap="butt" fill="black"/>
    <rect x="48.39" y="29.03" width="9.68" height="9.68" stroke="black" stroke-width="0.2" stroke-linecap="butt" fill="black"/>
    <rect x="48.39" y="48.39" width="9.68" height="9.68" stroke="black" stroke-width="0.2" stroke-linecap="butt" fill="black"/>
    <rect x="48.39" y="58.06" width="9.68" height="9.68" stroke="black" stroke-width="0.2" stroke-linecap="butt" fill="black"/>
    <rect x="48.39" y="67.74" width="9.68" height="9.68" stroke="black" stroke-width="0.2" stroke-linecap="butt" fill="black"/>
    <rect x="48.39" y="87.10" width="9.68" height="9.68" stroke="black" stroke-width="0.2" stroke-linecap="butt" fill="black"/>
    <rect x="48.39" y="116.13" width="9.68" height="9.68" stroke="black" stroke-width="0.2" stroke-linecap="butt" fill="black"/>
    <rect x="48.39" y="135.48" width="9.68" height="9.68" stroke="black" stroke-width="0.2" stroke-linecap="butt" fill="black"/>
    <rect x="48.39" y="174.19" width="9.68" height="9.68" stroke="black" stroke-width="0.2" stroke-linecap="butt" fill="black"/>
    <rect x="48.39" y="203.23" width="9.68" height="9.68" stroke="black" stroke-width="0.2" stroke-linecap="butt" fill="black"/>
    <rect x="48.39" y="222.58" width="9.68" height="9.68" stroke="black" stroke-width="0.2" stroke-linecap="butt" fill="black"/>
    <rect x="48.39" y="232.26" width="9.68" height="9.68" stroke="black" stroke-width="0.2" stroke-linecap="butt" fill="black"/>
    <rect x="48.39" y="241.94" width="9.68" height="9.68" stroke="black" stroke-width="0.2" stroke-linecap="butt" fill="black"/>
    <rect x="48.39" y="261.29" width="9.68" height="9.68" stroke="black" stroke-width="0.2" stroke-linecap="butt" fill="black"/>
    <rect x="58.06" y="29.03" width="9.68" height="9.68" stroke="black" stroke-width="0.2" stroke-linecap="butt" fill="black"/>
    <rect x="58.06" y="48.39" width="9.68" height="9.68" stroke="black" stroke-width="0.2" stroke-linecap="butt" fill="black"/>
    <rect x="58.06" y="58.06" width="9.68" height="9.68" stroke="black" stroke-width="0.2" stroke-linecap="butt" fill="black"/>
    <rect x="58.06" y="67.74" width="9.68" height="9.68" stroke="black" stroke-width="0.2" stroke-linecap="butt" fill="black"/>
    <rect x="58.06" y="87.10" width="9.68" height="9.68" stroke="black" stroke-width="0.2" stroke-linecap="butt" fill="black"/>
    <rect x="58.06" y="106.45" width="9.68" height="9.68" stroke="black" stroke-width="0.2" stroke-linecap="butt" fill="black"/>
    <rect x="58.06" y="145.16" width="9.68" height="9.68" stroke="black" stroke-width="0.2" stroke-linecap="butt" fill="black"/>
    <rect x="58.06" y="164.52" width="9.68" height="9.68" stroke="black" stroke-width="0.2" stroke-linecap="butt" fill="black"/>
    <rect x="58.06" y="174.19" width="9.68" height="9.68" stroke="black" stroke-width="0.2" stroke-linecap="butt" fill="black"/>
    <rect x="58.06" y="183.87" width="9.68" height="9.68" stroke="black" stroke-width="0.2" stroke-linecap="butt" fill="black"/>
    <rect x="58.06" y="203.23" width="9.68" height="9.68" stroke="black" stroke-width="0.2" stroke-linecap="butt" fill="black"/>
    <rect x="58.06" y="222.58" width="9.68" height="9.68" stroke="black" stroke-width="0.2" stroke-linecap="butt" fill="black"/>
    <rect x="58.06" y="232.26" width="9.68" height="9.68" stroke="black" stroke-width="0.2" stroke-linecap="butt" fill="black"/>
    <rect x="58.06" y="241.94" width="9.68" height="9.68" stroke="black" stroke-width="0.2" stroke-linecap="butt" fill="black"/>
    <rect x="58.06" y="261.29" width="9.68" height="9.68" stroke="black" stroke-width="0.2" stroke-linecap="butt" fill="black"/>
    <rect x="67.74" y="29.03" width="9.68" height="9.68" stroke="black" stroke-width="0.2" stroke-linecap="butt" fill="black"/>
    <rect x="67.74" y="48.39" width="9.68" height="9.68" stroke="black" stroke-width="0.2" stroke-linecap="butt" fill="black"/>
    <rect x="67.74" y="58.06" width="9.68" height="9.68" stroke="black" stroke-width="0.2" stroke-linecap="butt" fill="black"/>
    <rect x="67.74" y="67.74" width="9.68" height="9.68" stroke="black" stroke-width="0.2" stroke-linecap="butt" fill="black"/>
    <rect x="67.74" y="87.10" width="9.68" height="9.68" stroke="black" stroke-width="0.2" stroke-linecap="butt" fill="black"/>
    <rect x="67.74" y="106.45" width="9.68" height="9.68" stroke="black" stroke-width="0.2" stroke-linecap="butt" fill="black"/>
    <rect x="67.74" y="116.13" width="9.68" height="9.68" stroke="black" stroke-width="0.2" stroke-linecap="butt" fill="black"/>
    <rect x="67.74" y="125.81" width="9.68" height="9.68" stroke="black" stroke-width="0.2" stroke-linecap="butt" fill="black"/>
    <rect x="67.74" y="154.84" width="9.68" height="9.68" stroke="black" stroke-width="0.2" stroke-linecap="butt" fill="black"/>
    <rect x="67.74" y="164.52" width="9.68" height="9.68" stroke="black" stroke-width="0.2" stroke-linecap="butt" fill="black"/>
    <rect x="67.74" y="174.19" width="9.68" height="9.68" stroke="black" stroke-width="0.2" stroke-linecap="butt" fill="black"/>
    <rect x="67.74" y="183.87" width="9.68" height="9.68" stroke="black" stroke-width="0.2" stroke-linecap="butt" fill="black"/>
    <rect x="67.74" y="203.23" width="9.68" height="9.68" stroke="black" stroke-width="0.2" stroke-linecap="butt" fill="black"/>
    <rect x="67.74" y="222.58" width="9.68" height="9.68" stroke="black" stroke-width="0.2" stroke-linecap="butt" fill="black"/>
    <rect x="67.74" y="232.26" width="9.68" height="9.68" stroke="black" stroke-width="0.2" stroke-linecap="butt" fill="black"/>
    <rect x="67.74" y="241.94" width="9.68" height="9.68" stroke="black" stroke-width="0.2" stroke-linecap="butt" fill="black"/>
    <rect x="67.74" y="261.29" width="9.68" height="9.68" stroke="black" stroke-width="0.2" stroke-linecap="butt" fill="black"/>
    <rect x="77.42" y="29.03" width="9.68" height="9.68" stroke="black" stroke-width="0.2" stroke-linecap="butt" fill="black"/>
    <rect x="77.42" y="87.10" width="9.68" height="9.68" stroke="black" stroke-width="0.2" stroke-linecap="butt" fill="black"/>
    <rect x="77.42" y="145.16" width="9.68" height="9.68" stroke="black" stroke-width="0.2" stroke-linecap="butt" fill="black"/>
    <rect x="77.42" y="164.52" width="9.68" height="9.68" stroke="black" stroke-width="0.2" stroke-linecap="butt" fill="black"/>
    <rect x="77.42" y="203.23" width="9.68" height="9.68" stroke="black" stroke-width="0.2" stroke-linecap="butt" fill="black"/>
    <rect x="77.42" y="261.29" width="9.68" height="9.68" stroke="black" stroke-width="0.2" stroke-linecap="butt" fill="black"/>
    <rect x="87.10" y="29.03" width="9.68" height="9.68" stroke="black" stroke-width="0.2" stroke-linecap="butt" fill="black"/>
    <rect x="87.10" y="38.71" width="9.68" height="9.68" stroke="black" stroke-width="0.2" stroke-linecap="butt" fill="black"/>
    <rect x="87.10" y="48.39" width="9.68" height="9.68" stroke="black" stroke-width="0.2" stroke-linecap="butt" fill="black"/>
    <rect x="87.10" y="58.06" width="9.68" height="9.68" stroke="black" stroke-width="0.2" stroke-linecap="butt" fill="black"/>
    <rect x="87.10" y="67.74" width="9.68" height="9.68" stroke="black" stroke-width="0.2" stroke-linecap="butt" fill="black"/>
    <rect x="87.10" y="77.42" width="9.68" height="9.68" stroke="black" stroke-width="0.2" stroke-linecap="butt" fill="black"/>
    <rect x="87.10" y="87.10" width="9.68" height="9.68" stroke="black" stroke-width="0.2" stroke-linecap="butt" fill="black"/>
    <rect x="87.10" y="106.45" width="9.68" height="9.68" stroke="black" stroke-width="0.2" stroke-linecap="butt" fill="black"/>
    <rect x="87.10" y="125.81" width="9.68" height="9.68" stroke="black" stroke-width="0.2" stroke-linecap="butt" fill="black"/>
    <rect x="87.10" y="145.16" width="9.68" height="9.68" stroke="black" stroke-width="0.2" stroke-linecap="butt" fill="black"/>
    <rect x="87.10" y="164.52" width="9.68" height="9.68" stroke="black" stroke-width="0.2" stroke-linecap="butt" fill="black"/>
    <rect x="87.10" y="183.87" width="9.68" height="9.68" stroke="black" stroke-width="0.2" stroke-linecap="butt" fill="black"/>
    <rect x="87.10" y="203.23" width="9.68" height="9.68" stroke="black" stroke-width="0.2" stroke-linecap="butt" fill="black"/>
    <rect x="87.10" y="212.90" width="9.68" height="9.68" stroke="black" stroke-width="0.2" stroke-linecap="butt" fill="black"/>
    <rect x="87.10" y="222.58" width="9.68" height="9.68" stroke="black" stroke-width="0.2" stroke-linecap="butt" fill="black"/>
    <rect x="87.10" y="232.26" width="9.68" height="9.68" stroke="black" stroke-width="0.2" stroke-linecap="butt" fill="black"/>
    <rect x="87.10" y="241.94" width="9.68" height="9.68" stroke="black" stroke-width="0.2" stroke-linecap="butt" fill="black"/>
    <rect x="87.10" y="251.61" width="9.68" height="9.68" stroke="black" stroke-width="0.2" stroke-linecap="butt" fill="black"/>
    <rect x="87.10" y="261.29" width="9.68" height="9.68" stroke="black" stroke-width="0.2" stroke-linecap="butt" fill="black"/>
    <rect x="96.77" y="116.13" width="9.68" height="9.68" stroke="black" stroke-width="0.2" stroke-linecap="butt" fill="black"/>
    <rect x="96.77" y="135.48" width="9.68" height="9.68" stroke="black" stroke-width="0.2" stroke-linecap="butt" fill="black"/>
    <rect x="96.77" y="164.52" width="9.68" height="9.68" stroke="black" stroke-width="0.2" stroke-linecap="butt" fill="black"/>
    <rect x="96.77" y="174.19" width="9.68" height="9.68" stroke="black" stroke-width="0.2" stroke-linecap="butt" fill="black"/>
    <rect x="96.77" y="183.87" width="9.68" height="9.68" stroke="black" stroke-width="0.2" stroke-linecap="butt" fill="black"/>
    <rect x="106.45" y="29.03" width="9.68" height="9.68" stroke="black" stroke-width="0.2" stroke-linecap="butt" fill="black"/>
    <rect x="106.45" y="87.10" width="9.68" height="9.68" stroke="black" stroke-width="0.2" stroke-linecap="butt" fill="black"/>
    <rect x="106.45" y="96.77" width="9.68" height="9.68" stroke="black" stroke-width="0.2" stroke-linecap="butt" fill="black"/>
    <rect x="106.45" y="116.13" width="9.68" height="9.68" stroke="black" stroke-width="0.2" stroke-linecap="butt" fill="black"/>
    <rect x="106.45" y="125.81" width="9.68" height="9.68" stroke="black" stroke-width="0.2" stroke-linecap="butt" fill="black"/>
    <rect x="106.45" y="135.48" width="9.68" height="9.68" stroke="black" stroke-width="0.2" stroke-linecap="butt" fill="black"/>
    <rect x="106.45" y="154.84" width="9.68" height="9.68" stroke="black" stroke-width="0.2" stroke-linecap="butt" fill="black"/>
    <rect x="106.45" y="174.19" width="9.68" height="9.68" stroke="black" stroke-width="0.2" stroke-linecap="butt" fill="black"/>
    <rect x="106.45" y="193.55" width="9.68" height="9.68" stroke="black" stroke-width="0.2" stroke-linecap="butt" fill="black"/>
    <rect x="106.45" y="222.58" width="9.68" height="9.68" stroke="black" stroke-width="0.2" stroke-linecap="butt" fill="black"/>
    <rect x="106.45" y="232.26" width="9.68" height="9.68" stroke="black" stroke-width="0.2" stroke-linecap="butt" fill="black"/>
    <rect x="106.45" y="251.61" width="9.68" height="9.68" stroke="black" stroke-width="0.2" stroke-linecap="butt" fill="black"/>
    <rect x="106.45" y="261.29" width="9.68" height="9.68" stroke="black" stroke-width="0.2" stroke-linecap="butt" fill="black"/>
    <rect x="116.13" y="29.03" width="9.68" height="9.68" stroke="black" stroke-width="0.2" stroke-linecap="butt" fill="black"/>
    <rect x="116.13" y="48.39" width="9.68" height="9.68" stroke="black" stroke-width="0.2" stroke-linecap="butt" fill="black"/>
    <rect x="116.13" y="77.42" width="9.68" height="9.68" stroke="black" stroke-width="0.2" stroke-linecap="butt" fill="black"/>
    <rect x="116.13" y="96.77" width="9.68" height="9.68" stroke="black" stroke-width="0.2" stroke-linecap="butt" fill="black"/>
    <rect x="116.13" y="106.45" width="9.68" height="9.68" stroke="black" stroke-width="0.2" stroke-linecap="butt" fill="black"/>
    <rect x="116.13" y="125.81" width="9.68" height="9.68" stroke="black" stroke-width="0.2" stroke-linecap="butt" fill="black"/>
    <rect x="116.13" y="145.16" width="9.68" height="9.68" stroke="black" stroke-width="0.2" stroke-linecap="butt" fill="black"/>
    <rect x="116.13" y="174.19" width="9.68" height="9.68" stroke="black" stroke-width="0.2" stroke-linecap="butt" fill="black"/>
    <rect x="116.13" y="183.87" width="9.68" height="9.68" stroke="black" stroke-width="0.2" stroke-linecap="butt" fill="black"/>
    <rect x="116.13" y="203.23" width="9.68" height="9.68" stroke="black" stroke-width="0.2" stroke-linecap="butt" fill="black"/>
    <rect x="116.13" y="212.90" width="9.68" height="9.68" stroke="black" stroke-width="0.2" stroke-linecap="butt" fill="black"/>
    <rect x="116.13" y="222.58" width="9.68" height="9.68" stroke="black" stroke-width="0.2" stroke-linecap="butt" fill="black"/>
    <rect x="116.13" y="232.26" width="9.68" height="9.68" stroke="black" stroke-width="0.2" stroke-linecap="butt" fill="black"/>
    <rect x="116.13" y="241.94" width="9.68" height="9.68" stroke="black" stroke-width="0.2" stroke-linecap="butt" fill="black"/>
    <rect x="116.13" y="251.61" width="9.68" height="9.68" stroke="black" stroke-width="0.2" stroke-linecap="butt" fill="black"/>
    <rect x="116.13" y="261.29" width="9.68" height="9.68" stroke="black" stroke-width="0.2" stroke-linecap="butt" fill="black"/>
    <rect x="125.81" y="29.03" width="9.68" height="9.68" stroke="black" stroke-width="0.2" stroke-linecap="butt" fill="black"/>
    <rect x="125.81" y="58.06" width="9.68" height="9.68" stroke="black" stroke-width="0.2" stroke-linecap="butt" fill="black"/>
    <rect x="125.81" y="67.74" width="9.68" height="9.68" stroke="black" stroke-width="0.2" stroke-linecap="butt" fill="black"/>
    <rect x="125.81" y="87.10" width="9.68" height="9.68" stroke="black" stroke-width="0.2" stroke-linecap="butt" fill="black"/>
    <rect x="125.81" y="116.13" width="9.68" height="9.68" stroke="black" stroke-width="0.2" stroke-linecap="butt" fill="black"/>
    <rect x="125.81" y="145.16" width="9.68" height="9.68" stroke="black" stroke-width="0.2" stroke-linecap="butt" fill="black"/>
    <rect x="125.81" y="154.84" width="9.68" height="9.68" stroke="black" stroke-width="0.2" stroke-linecap="butt" fill="black"/>
    <rect x="125.81" y="164.52" width="9.68" height="9.68" stroke="black" stroke-width="0.2" stroke-linecap="butt" fill="black"/>
    <rect x="125.81" y="174.19" width="9.68" height="9.68" stroke="black" stroke-width="0.2" stroke-linecap="butt" fill="black"/>
    <rect x="125.81" y="203.23" width="9.68" height="9.68" stroke="black" stroke-width="0.2" stroke-linecap="butt" fill="black"/>
    <rect x="125.81" y="232.26" width="9.68" height="9.68" stroke="black" stroke-width="0.2" stroke-linecap="butt" fill="black"/>
    <rect x="125.81" y="241.94" width="9.68" height="9.68" stroke="black" stroke-width="0.2" stroke-linecap="butt" fill="black"/>
    <rect x="135.48" y="29.03" width="9.68" height="9.68" stroke="black" stroke-width="0.2" stroke-linecap="butt" fill="black"/>
    <rect x="135.48" y="38.71" width="9.68" height="9.68" stroke="black" stroke-width="0.2" stroke-linecap="butt" fill="black"/>
    <rect x="135.48" y="48.39" width="9.68" height="9.68" stroke="black" stroke-width="0.2" stroke-linecap="butt" fill="black"/>
    <rect x="135.48" y="58.06" width="9.68" height="9.68" stroke="black" stroke-width="0.2" stroke-linecap="butt" fill="black"/>
    <rect x="135.48" y="67.74" width="9.68" height="9.68" stroke="black" stroke-width="0.2" stroke-linecap="butt" fill="black"/>
    <rect x="135.48" y="77.42" width="9.68" height="9.68" stroke="black" stroke-width="0.2" stroke-linecap="butt" fill="black"/>
    <rect x="135.48" y="174.19" width="9.68" height="9.68" stroke="black" stroke-width="0.2" stroke-linecap="butt" fill="black"/>
    <rect x="135.48" y="183.87" width="9.68" height="9.68" stroke="black" stroke-width="0.2" stroke-linecap="butt" fill="black"/>
    <rect x="135.48" y="203.23" width="9.68" height="9.68" stroke="black" stroke-width="0.2" stroke-linecap="butt" fill="black"/>
    <rect x="135.48" y="212.90" width="9.68" height="9.68" stroke="black" stroke-width="0.2" stroke-linecap="butt" fill="black"/>
    <rect x="135.48" y="222.58" width="9.68" height="9.68" stroke="black" stroke-width="0.2" stroke-linecap="butt" fill="black"/>
    <rect x="135.48" y="232.26" width="9.68" height="9.68" stroke="black" stroke-width="0.2" stroke-linecap="butt" fill="black"/>
    <rect x="135.48" y="241.94" width="9.68" height="9.68" stroke="black" stroke-width="0.2" stroke-linecap="butt" fill="black"/>
    <rect x="135.48" y="251.61" width="9.68" height="9.68" stroke="black" stroke-width="0.2" stroke-linecap="butt" fill="black"/>
    <rect x="145.16" y="38.71" width="9.68" height="9.68" stroke="black" stroke-width="0.2" stroke-linecap="butt" fill="black"/>
    <rect x="145.16" y="67.74" width="9.68" height="9.68" stroke="black" stroke-width="0.2" stroke-linecap="butt" fill="black"/>
    <rect x="145.16" y="87.10" width="9.68" height="9.68" stroke="black" stroke-width="0.2" stroke-linecap="butt" fill="black"/>
    <rect x="145.16" y="96.77" width="9.68" height="9.68" stroke="black" stroke-width="0.2" stroke-linecap="butt" fill="black"/>
    <rect x="145.16" y="106.45" width="9.68" height="9.68" stroke="black" stroke-width="0.2" stroke-linecap="butt" fill="black"/>
    <rect x="145.16" y="125.81" width="9.68" height="9.68" stroke="black" stroke-width="0.2" stroke-linecap="butt" fill="black"/>
    <rect x="145.16" y="145.16" width="9.68" height="9.68" stroke="black" stroke-width="0.2" stroke-linecap="butt" fill="black"/>
    <rect x="145.16" y="154.84" width="9.68" height="9.68" stroke="black" stroke-width="0.2" stroke-linecap="butt" fill="black"/>
    <rect x="145.16" y="183.87" width="9.68" height="9.68" stroke="black" stroke-width="0.2" stroke-linecap="butt" fill="black"/>
    <rect x="145.16" y="203.23" width="9.68" height="9.68" stroke="black" stroke-width="0.2" stroke-linecap="butt" fill="black"/>
    <rect x="145.16" y="222.58" width="9.68" height="9.68" stroke="black" stroke-width="0.2" stroke-linecap="butt" fill="black"/>
    <rect x="145.16" y="251.61" width="9.68" height="9.68" stroke="black" stroke-width="0.2" stroke-linecap="butt" fill="black"/>
    <rect x="145.16" y="261.29" width="9.68" height="9.68" stroke="black" stroke-width="0.2" stroke-linecap="butt" fill="black"/>
    <rect x="154.84" y="48.39" width="9.68" height="9.68" stroke="black" stroke-width="0.2" stroke-linecap="butt" fill="black"/>
    <rect x="154.84" y="58.06" width="9.68" height="9.68" stroke="black" stroke-width="0.2" stroke-linecap="butt" fill="black"/>
    <rect x="154.84" y="67.74" width="9.68" height="9.68" stroke="black" stroke-width="0.2" stroke-linecap="butt" fill="black"/>
    <rect x="154.84" y="77.42" width="9.68" height="9.68" stroke="black" stroke-width="0.2" stroke-linecap="butt" fill="black"/>
    <rect x="154.84" y="96.77" width="9.68" height="9.68" stroke="black" stroke-width="0.2" stroke-linecap="butt" fill="black"/>
    <rect x="154.84" y="125.81" width="9.68" height="9.68" stroke="black" stroke-width="0.2" stroke-linecap="butt" fill="black"/>
    <rect x="154.84" y="154.84" width="9.68" height="9.68" stroke="black" stroke-width="0.2" stroke-linecap="butt" fill="black"/>
    <rect x="154.84" y="164.52" width="9.68" height="9.68" stroke="black" stroke-width="0.2" stroke-linecap="butt" fill="black"/>
    <rect x="154.84" y="183.87" width="9.68" height="9.68" stroke="black" stroke-width="0.2" stroke-linecap="butt" fill="black"/>
    <rect x="154.84" y="193.55" width="9.68" height="9.68" stroke="black" stroke-width="0.2" stroke-linecap="butt" fill="black"/>
    <rect x="154.84" y="203.23" width="9.68" height="9.68" stroke="black" stroke-width="0.2" stroke-linecap="butt" fill="black"/>
    <rect x="154.84" y="212.90" width="9.68" height="9.68" stroke="black" stroke-width="0.2" stroke-linecap="butt" fill="black"/>
    <rect x="164.52" y="29.03" width="9.68" height="9.68" stroke="black" stroke-width="0.2" stroke-linecap="butt" fill="black"/>
    <rect x="164.52" y="48.39" width="9.68" height="9.68" stroke="black" stroke-width="0.2" stroke-linecap="butt" fill="black"/>
    <rect x="164.52" y="67.74" width="9.68" height="9.68" stroke="black" stroke-width="0.2" stroke-linecap="butt" fill="black"/>
    <rect x="164.52" y="77.42" width="9.68" height="9.68" stroke="black" stroke-width="0.2" stroke-linecap="butt" fill="black"/>
    <rect x="164.52" y="87.10" width="9.68" height="9.68" stroke="black" stroke-width="0.2" stroke-linecap="butt" fill="black"/>
    <rect x="164.52" y="96.77" width="9.68" height="9.68" stroke="black" stroke-width="0.2" stroke-linecap="butt" fill="black"/>
    <rect x="164.52" y="106.45" width="9.68" height="9.68" stroke="black" stroke-width="0.2" stroke-linecap="butt" fill="black"/>
    <rect x="164.52" y="125.81" width="9.68" height="9.68" stroke="black" stroke-width="0.2" stroke-linecap="butt" fill="black"/>
    <rect x="164.52" y="135.48" width="9.68" height="9.68" stroke="black" stroke-width="0.2" stroke-linecap="butt" fill="black"/>
    <rect x="164.52" y="164.52" width="9.68" height="9.68" stroke="black" stroke-width="0.2" stroke-linecap="butt" fill="black"/>
    <rect x="164.52" y="212.90" width="9.68" height="9.68" stroke="black" stroke-width="0.2" stroke-linecap="butt" fill="black"/>
    <rect x="164.52" y="222.58" width="9.68" height="9.68" stroke="black" stroke-width="0.2" stroke-linecap="butt" fill="black"/>
    <rect x="174.19" y="96.77" width="9.68" height="9.68" stroke="black" stroke-width="0.2" stroke-linecap="butt" fill="black"/>
    <rect x="174.19" y="116.13" width="9.68" height="9.68" stroke="black" stroke-width="0.2" stroke-linecap="butt" fill="black"/>
    <rect x="174.19" y="125.81" width="9.68" height="9.68" stroke="black" stroke-width="0.2" stroke-linecap="butt" fill="black"/>
    <rect x="174.19" y="135.48" width="9.68" height="9.68" stroke="black" stroke-width="0.2" stroke-linecap="butt" fill="black"/>
    <rect x="174.19" y="145.16" width="9.68" height="9.68" stroke="black" stroke-width="0.2" stroke-linecap="butt" fill="black"/>
    <rect x="174.19" y="154.84" width="9.68" height="9.68" stroke="black" stroke-width="0.2" stroke-linecap="butt" fill="black"/>
    <rect x="174.19" y="164.52" width="9.68" height="9.68" stroke="black" stroke-width="0.2" stroke-linecap="butt" fill="black"/>
    <rect x="174.19" y="183.87" width="9.68" height="9.68" stroke="black" stroke-width="0.2" stroke-linecap="butt" fill="black"/>
    <rect x="174.19" y="193.55" width="9.68" height="9.68" stroke="black" stroke-width="0.2" stroke-linecap="butt" fill="black"/>
    <rect x="174.19" y="212.90" width="9.68" height="9.68" stroke="black" stroke-width="0.2" stroke-linecap="butt" fill="black"/>
    <rect x="174.19" y="222.58" width="9.68" height="9.68" stroke="black" stroke-width="0.2" stroke-linecap="butt" fill="black"/>
    <rect x="174.19" y="261.29" width="9.68" height="9.68" stroke="black" stroke-width="0.2" stroke-linecap="butt" fill="black"/>
    <rect x="183.87" y="38.71" width="9.68" height="9.68" stroke="black" stroke-width="0.2" stroke-linecap="butt" fill="black"/>
    <rect x="183.87" y="48.39" width="9.68" height="9.68" stroke="black" stroke-width="0.2" stroke-linecap="butt" fill="black"/>
    <rect x="183.87" y="58.06" width="9.68" height="9.68" stroke="black" stroke-width="0.2" stroke-linecap="butt" fill="black"/>
    <rect x="183.87" y="67.74" width="9.68" height="9.68" stroke="black" stroke-width="0.2" stroke-linecap="butt" fill="black"/>
    <rect x="183.87" y="87.10" width="9.68" height="9.68" stroke="black" stroke-width="0.2" stroke-linecap="butt" fill="black"/>
    <rect x="183.87" y="96.77" width="9.68" height="9.68" stroke="black" stroke-width="0.2" stroke-linecap="butt" fill="black"/>
    <rect x="183.87" y="106.45" width="9.68" height="9.68" stroke="black" stroke-width="0.2" stroke-linecap="butt" fill="black"/>
    <rect x="183.87" y="116.13" width="9.68" height="9.68" stroke="black" stroke-width="0.2" stroke-linecap="butt" fill="black"/>
    <rect x="183.87" y="125.81" width="9.68" height="9.68" stroke="black" stroke-width="0.2" stroke-linecap="butt" fill="black"/>
    <rect x="183.87" y="135.48" width="9.68" height="9.68" stroke="black" stroke-width="0.2" stroke-linecap="butt" fill="black"/>
    <rect x="183.87" y="154.84" width="9.68" height="9.68" stroke="black" stroke-width="0.2" stroke-linecap="butt" fill="black"/>
    <rect x="183.87" y="183.87" width="9.68" height="9.68" stroke="black" stroke-width="0.2" stroke-linecap="butt" fill="black"/>
    <rect x="183.87" y="193.55" width="9.68" height="9.68" stroke="black" stroke-width="0.2" stroke-linecap="butt" fill="black"/>
    <rect x="183.87" y="203.23" width="9.68" height="9.68" stroke="black" stroke-width="0.2" stroke-linecap="butt" fill="black"/>
    <rect x="183.87" y="212.90" width="9.68" height="9.68" stroke="black" stroke-width="0.2" stroke-linecap="butt" fill="black"/>
    <rect x="183.87" y="222.58" width="9.68" height="9.68" stroke="black" stroke-width="0.2" stroke-linecap="butt" fill="black"/>
    <rect x="183.87" y="241.94" width="9.68" height="9.68" stroke="black" stroke-width="0.2" stroke-linecap="butt" fill="black"/>
    <rect x="183.87" y="261.29" width="9.68" height="9.68" stroke="black" stroke-width="0.2" stroke-linecap="butt" fill="black"/>
    <rect x="193.55" y="135.48" width="9.68" height="9.68" stroke="black" stroke-width="0.2" stroke-linecap="butt" fill="black"/>
    <rect x="193.55" y="164.52" width="9.68" height="9.68" stroke="black" stroke-width="0.2" stroke-linecap="butt" fill="black"/>
    <rect x="193.55" y="174.19" width="9.68" height="9.68" stroke="black" stroke-width="0.2" stroke-linecap="butt" fill="black"/>
    <rect x="193.55" y="183.87" width="9.68" height="9.68" stroke="black" stroke-width="0.2" stroke-linecap="butt" fill="black"/>
    <rect x="193.55" y="222.58" width="9.68" height="9.68" stroke="black" stroke-width="0.2" stroke-linecap="butt" fill="black"/>
    <rect x="193.55" y="232.26" width="9.68" height="9.68" stroke="black" stroke-width="0.2" stroke-linecap="butt" fill="black"/>
    <rect x="193.55" y="251.61" width="9.68" height="9.68" stroke="black" stroke-width="0.2" stroke-linecap="butt" fill="black"/>
    <rect x="193.55" y="261.29" width="9.68" height="9.68" stroke="black" stroke-width="0.2" stroke-linecap="butt" fill="black"/>
    <rect x="203.23" y="29.03" width="9.68" height="9.68" stroke="black" stroke-width="0.2" stroke-linecap="butt" fill="black"/>
    <rect x="203.23" y="38.71" width="9.68" height="9.68" stroke="black" stroke-width="0.2" stroke-linecap="butt" fill="black"/>
    <rect x="203.23" y="48.39" width="9.68" height="9.68" stroke="black" stroke-width="0.2" stroke-linecap="butt" fill="black"/>
    <rect x="203.23" y="58.06" width="9.68" height="9.68" stroke="black" stroke-width="0.2" stroke-linecap="butt" fill="black"/>
    <rect x="203.23" y="67.74" width="9.68" height="9.68" stroke="black" stroke-width="0.2" stroke-linecap="butt" fill="black"/>
    <rect x="203.23" y="77.42" width="9.68" height="9.68" stroke="black" stroke-width="0.2" stroke-linecap="butt" fill="black"/>
    <rect x="203.23" y="87.10" width="9.68" height="9.68" stroke="black" stroke-width="0.2" stroke-linecap="butt" fill="black"/>
    <rect x="203.23" y="106.45" width="9.68" height="9.68" stroke="black" stroke-width="0.2" stroke-linecap="butt" fill="black"/>
    <rect x="203.23" y="125.81" width="9.68" height="9.68" stroke="black" stroke-width="0.2" stroke-linecap="butt" fill="black"/>
    <rect x="203.23" y="145.16" width="9.68" height="9.68" stroke="black" stroke-width="0.2" stroke-linecap="butt" fill="black"/>
    <rect x="203.23" y="183.87" width="9.68" height="9.68" stroke="black" stroke-width="0.2" stroke-linecap="butt" fill="black"/>
    <rect x="203.23" y="203.23" width="9.68" height="9.68" stroke="black" stroke-width="0.2" stroke-linecap="butt" fill="black"/>
    <rect x="203.23" y="222.58" width="9.68" height="9.68" stroke="black" stroke-width="0.2" stroke-linecap="butt" fill="black"/>
    <rect x="203.23" y="232.26" width="9.68" height="9.68" stroke="black" stroke-width="0.2" stroke-linecap="butt" fill="black"/>
    <rect x="203.23" y="251.61" width="9.68" height="9.68" stroke="black" stroke-width="0.2" stroke-linecap="butt" fill="black"/>
    <rect x="212.90" y="29.03" width="9.68" height="9.68" stroke="black" stroke-width="0.2" stroke-linecap="butt" fill="black"/>
    <rect x="212.90" y="87.10" width="9.68" height="9.68" stroke="black" stroke-width="0.2" stroke-linecap="butt" fill="black"/>
    <rect x="212.90" y="116.13" width="9.68" height="9.68" stroke="black" stroke-width="0.2" stroke-linecap="butt" fill="black"/>
    <rect x="212.90" y="174.19" width="9.68" height="9.68" stroke="black" stroke-width="0.2" stroke-linecap="butt" fill="black"/>
    <rect x="212.90" y="183.87" width="9.68" height="9.68" stroke="black" stroke-width="0.2" stroke-linecap="butt" fill="black"/>
    <rect x="212.90" y="222.58" width="9.68" height="9.68" stroke="black" stroke-width="0.2" stroke-linecap="butt" fill="black"/>
    <rect x="212.90" y="251.61" width="9.68" height="9.68" stroke="black" stroke-width="0.2" stroke-linecap="butt" fill="black"/>
    <rect x="222.58" y="29.03" width="9.68" height="9.68" stroke="black" stroke-width="0.2" stroke-linecap="butt" fill="black"/>
    <rect x="222.58" y="48.39" width="9.68" height="9.68" stroke="black" stroke-width="0.2" stroke-linecap="butt" fill="black"/>
    <rect x="222.58" y="58.06" width="9.68" height="9.68" stroke="black" stroke-width="0.2" stroke-linecap="butt" fill="black"/>
    <rect x="222.58" y="67.74" width="9.68" height="9.68" stroke="black" stroke-width="0.2" stroke-linecap="butt" fill="black"/>
    <rect x="222.58" y="87.10" width="9.68" height="9.68" stroke="black" stroke-width="0.2" stroke-linecap="butt" fill="black"/>
    <rect x="222.58" y="116.13" width="9.68" height="9.68" stroke="black" stroke-width="0.2" stroke-linecap="butt" fill="black"/>
    <rect x="222.58" y="154.84" width="9.68" height="9.68" stroke="black" stroke-width="0.2" stroke-linecap="butt" fill="black"/>
    <rect x="222.58" y="164.52" width="9.68" height="9.68" stroke="black" stroke-width="0.2" stroke-linecap="butt" fill="black"/>
    <rect x="222.58" y="183.87" width="9.68" height="9.68" stroke="black" stroke-width="0.2" stroke-linecap="butt" fill="black"/>
    <rect x="222.58" y="193.55" width="9.68" height="9.68" stroke="black" stroke-width="0.2" stroke-linecap="butt" fill="black"/>
    <rect x="222.58" y="203.23" width="9.68" height="9.68" stroke="black" stroke-width="0.2" stroke-linecap="butt" fill="black"/>
    <rect x="222.58" y="212.90" width="9.68" height="9.68" stroke="black" stroke-width="0.2" stroke-linecap="butt" fill="black"/>
    <rect x="222.58" y="222.58" width="9.68" height="9.68" stroke="black" stroke-width="0.2" stroke-linecap="butt" fill="black"/>
    <rect x="222.58" y="241.94" width="9.68" height="9.68" stroke="black" stroke-width="0.2" stroke-linecap="butt" fill="black"/>
    <rect x="222.58" y="251.61" width="9.68" height="9.68" stroke="black" stroke-width="0.2" stroke-linecap="butt" fill="black"/>
    <rect x="232.26" y="29.03" width="9.68" height="9.68" stroke="black" stroke-width="0.2" stroke-linecap="butt" fill="black"/>
    <rect x="232.26" y="48.39" width="9.68" height="9.68" stroke="black" stroke-width="0.2" stroke-linecap="butt" fill="black"/>
    <rect x="232.26" y="58.06" width="9.68" height="9.68" stroke="black" stroke-width="0.2" stroke-linecap="butt" fill="black"/>
    <rect x="232.26" y="67.74" width="9.68" height="9.68" stroke="black" stroke-width="0.2" stroke-linecap="butt" fill="black"/>
    <rect x="232.26" y="87.10" width="9.68" height="9.68" stroke="black" stroke-width="0.2" stroke-linecap="butt" fill="black"/>
    <rect x="232.26" y="116.13" width="9.68" height="9.68" stroke="black" stroke-width="0.2" stroke-linecap="butt" fill="black"/>
    <rect x="232.26" y="125.81" width="9.68" height="9.68" stroke="black" stroke-width="0.2" stroke-linecap="butt" fill="black"/>
    <rect x="232.26" y="135.48" width="9.68" height="9.68" stroke="black" stroke-width="0.2" stroke-linecap="butt" fill="black"/>
    <rect x="232.26" y="164.52" width="9.68" height="9.68" stroke="black" stroke-width="0.2" stroke-linecap="butt" fill="black"/>
    <rect x="232.26" y="174.19" width="9.68" height="9.68" stroke="black" stroke-width="0.2" stroke-linecap="butt" fill="black"/>
    <rect x="232.26" y="241.94" width="9.68" height="9.68" stroke="black" stroke-width="0.2" stroke-linecap="butt" fill="black"/>
    <rect x="232.26" y="261.29" width="9.68" height="9.68" stroke="black" stroke-width="0.2" stroke-linecap="butt" fill="black"/>
    <rect x="241.94" y="29.03" width="9.68" height="9.68" stroke="black" stroke-width="0.2" stroke-linecap="butt" fill="black"/>
    <rect x="241.94" y="48.39" width="9.68" height="9.68" stroke="black" stroke-width="0.2" stroke-linecap="butt" fill="black"/>
    <rect x="241.94" y="58.06" width="9.68" height="9.68" stroke="black" stroke-width="0.2" stroke-linecap="butt" fill="black"/>
    <rect x="241.94" y="67.74" width="9.68" height="9.68" stroke="black" stroke-width="0.2" stroke-linecap="butt" fill="black"/>
    <rect x="241.94" y="87.10" width="9.68" height="9.68" stroke="black" stroke-width="0.2" stroke-linecap="butt" fill="black"/>
    <rect x="241.94" y="116.13" width="9.68" height="9.68" stroke="black" stroke-width="0.2" stroke-linecap="butt" fill="black"/>
    <rect x="241.94" y="135.48" width="9.68" height="9.68" stroke="black" stroke-width="0.2" stroke-linecap="butt" fill="black"/>
    <rect x="241.94" y="164.52" width="9.68" height="9.68" stroke="black" stroke-width="0.2" stroke-linecap="butt" fill="black"/>
    <rect x="241.94" y="174.19" width="9.68" height="9.68" stroke="black" stroke-width="0.2" stroke-linecap="butt" fill="black"/>
    <rect x="241.94" y="183.87" width="9.68" height="9.68" stroke="black" stroke-width="0.2" stroke-linecap="butt" fill="black"/>
    <rect x="241.94" y="193.55" width="9.68" height="9.68" stroke="black" stroke-width="0.2" stroke-linecap="butt" fill="black"/>
    <rect x="241.94" y="241.94" width="9.68" height="9.68" stroke="black" stroke-width="0.2" stroke-linecap="butt" fill="black"/>
    <rect x="241.94" y="251.61" width="9.68" height="9.68" stroke="black" stroke-width="0.2" stroke-linecap="butt" fill="black"/>
    <rect x="251.61" y="29.03" width="9.68" height="9.68" stroke="black" stroke-width="0.2" stroke-linecap="butt" fill="black"/>
    <rect x="251.61" y="87.10" width="9.68" height="9.68" stroke="black" stroke-width="0.2" stroke-linecap="butt" fill="black"/>
    <rect x="251.61" y="116.13" width="9.68" height="9.68" stroke="black" stroke-width="0.2" stroke-linecap="butt" fill="black"/>
    <rect x="251.61" y="135.48" width="9.68" height="9.68" stroke="black" stroke-width="0.2" stroke-linecap="butt" fill="black"/>
    <rect x="251.61" y="154.84" width="9.68" height="9.68" stroke="black" stroke-width="0.2" stroke-linecap="butt" fill="black"/>
    <rect x="251.61" y="164.52" width="9.68" height="9.68" stroke="black" stroke-width="0.2" stroke-linecap="butt" fill="black"/>
    <rect x="251.61" y="183.87" width="9.68" height="9.68" stroke="black" stroke-width="0.2" stroke-linecap="butt" fill="black"/>
    <rect x="251.61" y="193.55" width="9.68" height="9.68" stroke="black" stroke-width="0.2" stroke-linecap="butt" fill="black"/>
    <rect x="251.61" y="232.26" width="9.68" height="9.68" stroke="black" stroke-width="0.2" stroke-linecap="butt" fill="black"/>
    <rect x="251.61" y="241.94" width="9.68" height="9.68" stroke="black" stroke-width="0.2" stroke-linecap="butt" fill="black"/>
    <rect x="251.61" y="251.61" width="9.68" height="9.68" stroke="black" stroke-width="0.2" stroke-linecap="butt" fill="black"/>
    <rect x="261.29" y="29.03" width="9.68" height="9.68" stroke="black" stroke-width="0.2" stroke-linecap="butt" fill="black"/>
    <rect x="261.29" y="38.71" width="9.68" height="9.68" stroke="black" stroke-width="0.2" stroke-linecap="butt" fill="black"/>
    <rect x="261.29" y="48.39" width="9.68" height="9.68" stroke="black" stroke-width="0.2" stroke-linecap="butt" fill="black"/>
    <rect x="261.29" y="58.06" width="9.68" height="9.68" stroke="black" stroke-width="0.2" stroke-linecap="butt" fill="black"/>
    <rect x="261.29" y="67.74" width="9.68" height="9.68" stroke="black" stroke-width="0.2" stroke-linecap="butt" fill="black"/>
    <rect x="261.29" y="77.42" width="9.68" height="9.68" stroke="black" stroke-width="0.2" stroke-linecap="butt" fill="black"/>
    <rect x="261.29" y="87.10" width="9.68" height="9.68" stroke="black" stroke-width="0.2" stroke-linecap="butt" fill="black"/>
    <rect x="261.29" y="106.45" width="9.68" height="9.68" stroke="black" stroke-width="0.2" stroke-linecap="butt" fill="black"/>
    <rect x="261.29" y="125.81" width="9.68" height="9.68" stroke="black" stroke-width="0.2" stroke-linecap="butt" fill="black"/>
    <rect x="261.29" y="135.48" width="9.68" height="9.68" stroke="black" stroke-width="0.2" stroke-linecap="butt" fill="black"/>
    <rect x="261.29" y="145.16" width="9.68" height="9.68" stroke="black" stroke-width="0.2" stroke-linecap="butt" fill="black"/>
    <rect x="261.29" y="164.52" width="9.68" height="9.68" stroke="black" stroke-width="0.2" stroke-linecap="butt" fill="black"/>
    <rect x="261.29" y="174.19" width="9.68" height="9.68" stroke="black" stroke-width="0.2" stroke-linecap="butt" fill="black"/>
    <rect x="261.29" y="203.23" width="9.68" height="9.68" stroke="black" stroke-width="0.2" stroke-linecap="butt" fill="black"/>
    <rect x="261.29" y="232.26" width="9.68" height="9.68" stroke="black" stroke-width="0.2" stroke-linecap="butt" fill="black"/>
    <rect x="261.29" y="241.94" width="9.68" height="9.68" stroke="black" stroke-width="0.2" stroke-linecap="butt" fill="black"/>
    <rect x="261.29" y="251.61" width="9.68" height="9.68" stroke="black" stroke-width="0.2" stroke-linecap="butt" fill="black"/>
    <rect x="261.29" y="261.29" width="9.68" height="9.68" stroke="black" stroke-width="0.2" stroke-linecap="butt" fill="black"/>
  </g>
</svg>
